<?xml version="1.0" encoding="UTF-8" standalone="no"?>
<!-- Created with Inkscape (http://www.inkscape.org/) -->

<svg
   width="210mm"
   height="297mm"
   viewBox="0 0 210 297"
   version="1.1"
   id="svg1221"
   xml:space="preserve"
   inkscape:version="1.2 (dc2aedaf03, 2022-05-15)"
   sodipodi:docname="layout.svg"
   xmlns:inkscape="http://www.inkscape.org/namespaces/inkscape"
   xmlns:sodipodi="http://sodipodi.sourceforge.net/DTD/sodipodi-0.dtd"
   xmlns="http://www.w3.org/2000/svg"
   xmlns:svg="http://www.w3.org/2000/svg"><sodipodi:namedview
     id="namedview1223"
     pagecolor="#505050"
     bordercolor="#eeeeee"
     borderopacity="1"
     inkscape:showpageshadow="0"
     inkscape:pageopacity="0"
     inkscape:pagecheckerboard="0"
     inkscape:deskcolor="#505050"
     inkscape:document-units="mm"
     showgrid="false"
     inkscape:zoom="0.79633354"
     inkscape:cx="582.67042"
     inkscape:cy="367.3084"
     inkscape:window-width="1920"
     inkscape:window-height="991"
     inkscape:window-x="-9"
     inkscape:window-y="-9"
     inkscape:window-maximized="1"
     inkscape:current-layer="g2120" /><defs
     id="defs1218"><marker
       id="DistanceX"
       orient="auto"
       refX="0.0"
       refY="0.0"
       style="overflow:visible"><path
         d="M 3,-3 L -3,3 M 0,-5 L  0,5"
         style="stroke:#000000; stroke-width:0.5"
         id="path1227" /></marker><pattern
       id="Hatch"
       patternUnits="userSpaceOnUse"
       width="8"
       height="8"
       x="0"
       y="0"><path
         d="M8 4 l-4,4"
         stroke="#000000"
         stroke-width="0.25"
         linecap="square"
         id="path1230" /><path
         d="M6 2 l-4,4"
         stroke="#000000"
         stroke-width="0.25"
         linecap="square"
         id="path1232" /><path
         d="M4 0 l-4,4"
         stroke="#000000"
         stroke-width="0.25"
         linecap="square"
         id="path1234" /></pattern><symbol
       id="*MODEL_SPACE" /><symbol
       id="*PAPER_SPACE" /><marker
       id="DistanceX-0"
       orient="auto"
       refX="0.0"
       refY="0.0"
       style="overflow:visible"><path
         d="M 3,-3 L -3,3 M 0,-5 L  0,5"
         style="stroke:#000000; stroke-width:0.5"
         id="path1306" /></marker><pattern
       id="Hatch-3"
       patternUnits="userSpaceOnUse"
       width="8"
       height="8"
       x="0"
       y="0"><path
         d="M8 4 l-4,4"
         stroke="#000000"
         stroke-width="0.25"
         linecap="square"
         id="path1309" /><path
         d="M6 2 l-4,4"
         stroke="#000000"
         stroke-width="0.25"
         linecap="square"
         id="path1311" /><path
         d="M4 0 l-4,4"
         stroke="#000000"
         stroke-width="0.25"
         linecap="square"
         id="path1313" /></pattern><symbol
       id="*MODEL_SPACE-0" /><symbol
       id="*PAPER_SPACE-5" /><marker
       id="DistanceX-2"
       orient="auto"
       refX="0.0"
       refY="0.0"
       style="overflow:visible"><path
         d="M 3,-3 L -3,3 M 0,-5 L  0,5"
         style="stroke:#000000; stroke-width:0.5"
         id="path1352" /></marker><pattern
       id="Hatch-9"
       patternUnits="userSpaceOnUse"
       width="8"
       height="8"
       x="0"
       y="0"><path
         d="M8 4 l-4,4"
         stroke="#000000"
         stroke-width="0.25"
         linecap="square"
         id="path1355" /><path
         d="M6 2 l-4,4"
         stroke="#000000"
         stroke-width="0.25"
         linecap="square"
         id="path1357" /><path
         d="M4 0 l-4,4"
         stroke="#000000"
         stroke-width="0.25"
         linecap="square"
         id="path1359" /></pattern><symbol
       id="*MODEL_SPACE-3" /><symbol
       id="*PAPER_SPACE-2" /><marker
       id="DistanceX-6"
       orient="auto"
       refX="0.0"
       refY="0.0"
       style="overflow:visible"><path
         d="M 3,-3 L -3,3 M 0,-5 L  0,5"
         style="stroke:#000000; stroke-width:0.5"
         id="path1437" /></marker><pattern
       id="Hatch-2"
       patternUnits="userSpaceOnUse"
       width="8"
       height="8"
       x="0"
       y="0"><path
         d="M8 4 l-4,4"
         stroke="#000000"
         stroke-width="0.25"
         linecap="square"
         id="path1440" /><path
         d="M6 2 l-4,4"
         stroke="#000000"
         stroke-width="0.25"
         linecap="square"
         id="path1442" /><path
         d="M4 0 l-4,4"
         stroke="#000000"
         stroke-width="0.25"
         linecap="square"
         id="path1444" /></pattern><symbol
       id="*MODEL_SPACE-35" /><symbol
       id="*PAPER_SPACE-0" /></defs><g
     inkscape:label="Layer 1"
     inkscape:groupmode="layer"
     id="layer1"><path
       d="m 149.80756,199.02753 h 9.53406 v -20.13331 l -8.06312,1.42174 -0.55133,-3.12677 -12.01465,2.11849 0.55133,3.12677 -12.99946,2.29216 -0.55134,-3.12676 -12.01466,2.11852 0.55134,3.12676 -12.99947,2.29214 -0.55133,-3.12677 -12.014644,2.11852 0.55133,3.12677 -8.06264,1.42166 -2.430363,-13.78323 -8.06311,1.42174 -0.55133,-3.12677 -12.01466,2.11849 0.55133,3.12677 -12.99946,2.29216 -0.55133,-3.12676 -12.01466,2.11852 0.55134,3.12676 -12.99947,2.29214 -0.55133,-3.12677 -12.0146487,2.11852 0.55133,3.12677 -8.06310997,1.42174 v 6.35 H 10.107554 v -3.00001 h 12.699999 v 3.00001 h 19.05 v -3.00001 h 12.7 v 3.00001 h 19.05 v -3.00001 h 12.700003 v 3.00001 h 19.049994 v -3.00001 h 12.7 v 3.00001 h 19.05001 v -3.00001 h 12.7 z"
       style="fill:none;stroke:#000000;stroke-width:0.264583"
       id="path1320" /><g
       inkscape:label="0"
       id="g1390"
       transform="matrix(0.26458333,0,0,0.26458333,133.48229,-244.4802)"><path
         d="m 329.05512,1091.9055 v -77.6693 h 13.88976 v 77.6693 z"
         style="fill:none;stroke:#000000"
         id="path1366" /><path
         d="m 161.05512,1091.9055 v -77.6693 h 13.88976 v 77.6693 z"
         style="fill:none;stroke:#000000"
         id="path1368" /><path
         d="m 6.944882,1014.2362 v 77.6693 H -6.944882 v -77.6693 z"
         style="fill:none;stroke:#000000"
         id="path1370" /><path
         d="M 479.05512,1146.5197 H 492 v 48 h -12.94488 z"
         style="fill:none;stroke:#000000"
         id="path1372" /><path
         d="M 479.05512,1050.5197 H 492 v 48 h -12.94488 z"
         style="fill:none;stroke:#000000"
         id="path1374" /><path
         d="M 479.05512,1002.5197 V 954.51968 H 492 v 48.00002 z"
         style="fill:none;stroke:#000000"
         id="path1376" /><path
         d="M -479.05512,1002.5197 H -492 v -48.00002 h 12.94488 z"
         style="fill:none;stroke:#000000"
         id="path1378" /><path
         d="M -479.05512,1194.5197 H -492 v -48 h 12.94488 z"
         style="fill:none;stroke:#000000"
         id="path1380" /><path
         d="m -492,1098.5197 v -48 h 12.94488 v 48 z"
         style="fill:none;stroke:#000000"
         id="path1382" /><path
         d="m -342.94488,1091.9055 v -77.6693 h 13.88976 v 77.6693 z"
         style="fill:none;stroke:#000000"
         id="path1384" /><path
         d="m -174.94488,1091.9055 v -77.6693 h 13.88976 v 77.6693 z"
         style="fill:none;stroke:#000000"
         id="path1386" /><path
         d="M -504,924.51968 V 1224.5197 H 504 V 924.51968 Z"
         style="fill:none;stroke:#000000"
         id="path1388" /></g><g
       id="g1573"
       transform="rotate(-90,21.49917,50.740362)"><g
         inkscape:label="0"
         id="g1269"
         transform="matrix(0.26056371,0.04594441,-0.04594441,0.26056371,49.985867,31.087827)"><path
           style="fill:none;stroke:#000000"
           d="m 0,1122.52 -16.3995,-93.01"
           id="path1241" /><path
           style="fill:none;stroke:#000000"
           d="m -11.5325,1022.56 82.7238,-14.58"
           id="path1243" /><path
           style="fill:none;stroke:#000000"
           d="m 78.142,1012.84 17.827,101.11"
           id="path1245" /><path
           d="m 95.969014,1113.945 a 11.338583,11.338583 0 0 0 13.135246,9.1974"
           style="fill:none;stroke:#000000"
           id="path1247" /><path
           style="fill:none;stroke:#000000"
           d="m 109.104,1123.14 55.832,-9.84"
           id="path1249" /><path
           d="m 169.10344,1136.9332 a 12.000007,12.000007 0 1 0 -4.16756,-23.6354"
           style="fill:none;stroke:#000000"
           id="path1251" /><path
           style="fill:none;stroke:#000000"
           d="m 169.103,1136.93 -86.7545,15.3"
           id="path1253" /><path
           d="m 40.718268,1129.1082 a 37.795276,37.795276 0 0 0 41.630247,23.1222"
           style="fill:none;stroke:#000000"
           id="path1255" /><path
           d="m 40.718268,1129.1082 a 7.559055,7.559055 0 0 0 -8.32605,-4.6245"
           style="fill:none;stroke:#000000"
           id="path1259" /><path
           style="fill:none;stroke:#000000"
           d="m 32.3922,1124.48 -23.63537,4.17"
           id="path1261" /><path
           d="m 0,1122.5197 a 7.559055,7.559055 0 0 0 8.756832,6.1316"
           style="fill:none;stroke:#000000"
           id="path1263" /><path
           d="m -11.532541,1022.5628 a 6,6 0 0 0 -4.866957,6.9507"
           style="fill:none;stroke:#000000"
           id="path1265" /><path
           d="m 78.142046,1012.8433 a 6,6 0 0 0 -6.950735,-4.867"
           style="fill:none;stroke:#000000"
           id="path1267" /></g><g
         inkscape:label="0"
         id="g1543"
         transform="matrix(-0.26056371,-0.04594441,0.04594441,-0.26056371,20.533717,600.88012)"><path
           style="fill:none;stroke:#000000"
           d="m 0,1122.52 -16.3995,-93.01"
           id="path1517" /><path
           style="fill:none;stroke:#000000"
           d="m -11.5325,1022.56 82.7238,-14.58"
           id="path1519" /><path
           style="fill:none;stroke:#000000"
           d="m 78.142,1012.84 17.827,101.11"
           id="path1521" /><path
           d="m 95.969014,1113.945 a 11.338583,11.338583 0 0 0 13.135246,9.1974"
           style="fill:none;stroke:#000000"
           id="path1523" /><path
           style="fill:none;stroke:#000000"
           d="m 109.104,1123.14 55.832,-9.84"
           id="path1525" /><path
           d="m 169.10344,1136.9332 a 12.000007,12.000007 0 1 0 -4.16756,-23.6354"
           style="fill:none;stroke:#000000"
           id="path1527" /><path
           style="fill:none;stroke:#000000"
           d="m 169.103,1136.93 -86.7545,15.3"
           id="path1529" /><path
           d="m 40.718268,1129.1082 a 37.795276,37.795276 0 0 0 41.630247,23.1222"
           style="fill:none;stroke:#000000"
           id="path1531" /><path
           d="m 40.718268,1129.1082 a 7.559055,7.559055 0 0 0 -8.32605,-4.6245"
           style="fill:none;stroke:#000000"
           id="path1533" /><path
           style="fill:none;stroke:#000000"
           d="m 32.3922,1124.48 -23.63537,4.17"
           id="path1535" /><path
           d="m 0,1122.5197 a 7.559055,7.559055 0 0 0 8.756832,6.1316"
           style="fill:none;stroke:#000000"
           id="path1537" /><path
           d="m -11.532541,1022.5628 a 6,6 0 0 0 -4.866957,6.9507"
           style="fill:none;stroke:#000000"
           id="path1539" /><path
           d="m 78.142046,1012.8433 a 6,6 0 0 0 -6.950735,-4.867"
           style="fill:none;stroke:#000000"
           id="path1541" /></g></g><g
       inkscape:label="0"
       id="g1599"
       transform="matrix(0.26458333,0,0,0.26458333,133.03388,-160.3427)"><path
         d="m 329.05512,1091.9055 v -77.6693 h 13.88976 v 77.6693 z"
         style="fill:none;stroke:#000000"
         id="path1575" /><path
         d="m 161.05512,1091.9055 v -77.6693 h 13.88976 v 77.6693 z"
         style="fill:none;stroke:#000000"
         id="path1577" /><path
         d="m 6.944882,1014.2362 v 77.6693 H -6.944882 v -77.6693 z"
         style="fill:none;stroke:#000000"
         id="path1579" /><path
         d="M 479.05512,1146.5197 H 492 v 48 h -12.94488 z"
         style="fill:none;stroke:#000000"
         id="path1581" /><path
         d="M 479.05512,1050.5197 H 492 v 48 h -12.94488 z"
         style="fill:none;stroke:#000000"
         id="path1583" /><path
         d="M 479.05512,1002.5197 V 954.51968 H 492 v 48.00002 z"
         style="fill:none;stroke:#000000"
         id="path1585" /><path
         d="M -479.05512,1002.5197 H -492 v -48.00002 h 12.94488 z"
         style="fill:none;stroke:#000000"
         id="path1587" /><path
         d="M -479.05512,1194.5197 H -492 v -48 h 12.94488 z"
         style="fill:none;stroke:#000000"
         id="path1589" /><path
         d="m -492,1098.5197 v -48 h 12.94488 v 48 z"
         style="fill:none;stroke:#000000"
         id="path1591" /><path
         d="m -342.94488,1091.9055 v -77.6693 h 13.88976 v 77.6693 z"
         style="fill:none;stroke:#000000"
         id="path1593" /><path
         d="m -174.94488,1091.9055 v -77.6693 h 13.88976 v 77.6693 z"
         style="fill:none;stroke:#000000"
         id="path1595" /><path
         d="M -504,924.51968 V 1224.5197 H 504 V 924.51968 Z"
         style="fill:none;stroke:#000000"
         id="path1597" /></g><g
       id="g1657"
       transform="rotate(-90,59.773936,88.542389)"><g
         inkscape:label="0"
         id="g1627"
         transform="matrix(0.26056371,0.04594441,-0.04594441,0.26056371,49.985867,31.087827)"><path
           style="fill:none;stroke:#000000"
           d="m 0,1122.52 -16.3995,-93.01"
           id="path1601" /><path
           style="fill:none;stroke:#000000"
           d="m -11.5325,1022.56 82.7238,-14.58"
           id="path1603" /><path
           style="fill:none;stroke:#000000"
           d="m 78.142,1012.84 17.827,101.11"
           id="path1605" /><path
           d="m 95.969014,1113.945 a 11.338583,11.338583 0 0 0 13.135246,9.1974"
           style="fill:none;stroke:#000000"
           id="path1607" /><path
           style="fill:none;stroke:#000000"
           d="m 109.104,1123.14 55.832,-9.84"
           id="path1609" /><path
           d="m 169.10344,1136.9332 a 12.000007,12.000007 0 1 0 -4.16756,-23.6354"
           style="fill:none;stroke:#000000"
           id="path1611" /><path
           style="fill:none;stroke:#000000"
           d="m 169.103,1136.93 -86.7545,15.3"
           id="path1613" /><path
           d="m 40.718268,1129.1082 a 37.795276,37.795276 0 0 0 41.630247,23.1222"
           style="fill:none;stroke:#000000"
           id="path1615" /><path
           d="m 40.718268,1129.1082 a 7.559055,7.559055 0 0 0 -8.32605,-4.6245"
           style="fill:none;stroke:#000000"
           id="path1617" /><path
           style="fill:none;stroke:#000000"
           d="m 32.3922,1124.48 -23.63537,4.17"
           id="path1619" /><path
           d="m 0,1122.5197 a 7.559055,7.559055 0 0 0 8.756832,6.1316"
           style="fill:none;stroke:#000000"
           id="path1621" /><path
           d="m -11.532541,1022.5628 a 6,6 0 0 0 -4.866957,6.9507"
           style="fill:none;stroke:#000000"
           id="path1623" /><path
           d="m 78.142046,1012.8433 a 6,6 0 0 0 -6.950735,-4.867"
           style="fill:none;stroke:#000000"
           id="path1625" /></g><g
         inkscape:label="0"
         id="g1655"
         transform="matrix(-0.26056371,-0.04594441,0.04594441,-0.26056371,20.533717,600.88012)"><path
           style="fill:none;stroke:#000000"
           d="m 0,1122.52 -16.3995,-93.01"
           id="path1629" /><path
           style="fill:none;stroke:#000000"
           d="m -11.5325,1022.56 82.7238,-14.58"
           id="path1631" /><path
           style="fill:none;stroke:#000000"
           d="m 78.142,1012.84 17.827,101.11"
           id="path1633" /><path
           d="m 95.969014,1113.945 a 11.338583,11.338583 0 0 0 13.135246,9.1974"
           style="fill:none;stroke:#000000"
           id="path1635" /><path
           style="fill:none;stroke:#000000"
           d="m 109.104,1123.14 55.832,-9.84"
           id="path1637" /><path
           d="m 169.10344,1136.9332 a 12.000007,12.000007 0 1 0 -4.16756,-23.6354"
           style="fill:none;stroke:#000000"
           id="path1639" /><path
           style="fill:none;stroke:#000000"
           d="m 169.103,1136.93 -86.7545,15.3"
           id="path1641" /><path
           d="m 40.718268,1129.1082 a 37.795276,37.795276 0 0 0 41.630247,23.1222"
           style="fill:none;stroke:#000000"
           id="path1643" /><path
           d="m 40.718268,1129.1082 a 7.559055,7.559055 0 0 0 -8.32605,-4.6245"
           style="fill:none;stroke:#000000"
           id="path1645" /><path
           style="fill:none;stroke:#000000"
           d="m 32.3922,1124.48 -23.63537,4.17"
           id="path1647" /><path
           d="m 0,1122.5197 a 7.559055,7.559055 0 0 0 8.756832,6.1316"
           style="fill:none;stroke:#000000"
           id="path1649" /><path
           d="m -11.532541,1022.5628 a 6,6 0 0 0 -4.866957,6.9507"
           style="fill:none;stroke:#000000"
           id="path1651" /><path
           d="m 78.142046,1012.8433 a 6,6 0 0 0 -6.950735,-4.867"
           style="fill:none;stroke:#000000"
           id="path1653" /></g></g><g
       id="g1715"
       transform="rotate(-90,96.535791,127.19518)"><g
         inkscape:label="0"
         id="g1685"
         transform="matrix(0.26056371,0.04594441,-0.04594441,0.26056371,49.985867,31.087827)"><path
           style="fill:none;stroke:#000000"
           d="m 0,1122.52 -16.3995,-93.01"
           id="path1659" /><path
           style="fill:none;stroke:#000000"
           d="m -11.5325,1022.56 82.7238,-14.58"
           id="path1661" /><path
           style="fill:none;stroke:#000000"
           d="m 78.142,1012.84 17.827,101.11"
           id="path1663" /><path
           d="m 95.969014,1113.945 a 11.338583,11.338583 0 0 0 13.135246,9.1974"
           style="fill:none;stroke:#000000"
           id="path1665" /><path
           style="fill:none;stroke:#000000"
           d="m 109.104,1123.14 55.832,-9.84"
           id="path1667" /><path
           d="m 169.10344,1136.9332 a 12.000007,12.000007 0 1 0 -4.16756,-23.6354"
           style="fill:none;stroke:#000000"
           id="path1669" /><path
           style="fill:none;stroke:#000000"
           d="m 169.103,1136.93 -86.7545,15.3"
           id="path1671" /><path
           d="m 40.718268,1129.1082 a 37.795276,37.795276 0 0 0 41.630247,23.1222"
           style="fill:none;stroke:#000000"
           id="path1673" /><path
           d="m 40.718268,1129.1082 a 7.559055,7.559055 0 0 0 -8.32605,-4.6245"
           style="fill:none;stroke:#000000"
           id="path1675" /><path
           style="fill:none;stroke:#000000"
           d="m 32.3922,1124.48 -23.63537,4.17"
           id="path1677" /><path
           d="m 0,1122.5197 a 7.559055,7.559055 0 0 0 8.756832,6.1316"
           style="fill:none;stroke:#000000"
           id="path1679" /><path
           d="m -11.532541,1022.5628 a 6,6 0 0 0 -4.866957,6.9507"
           style="fill:none;stroke:#000000"
           id="path1681" /><path
           d="m 78.142046,1012.8433 a 6,6 0 0 0 -6.950735,-4.867"
           style="fill:none;stroke:#000000"
           id="path1683" /></g><g
         inkscape:label="0"
         id="g1713"
         transform="matrix(-0.26056371,-0.04594441,0.04594441,-0.26056371,20.533717,600.88012)"><path
           style="fill:none;stroke:#000000"
           d="m 0,1122.52 -16.3995,-93.01"
           id="path1687" /><path
           style="fill:none;stroke:#000000"
           d="m -11.5325,1022.56 82.7238,-14.58"
           id="path1689" /><path
           style="fill:none;stroke:#000000"
           d="m 78.142,1012.84 17.827,101.11"
           id="path1691" /><path
           d="m 95.969014,1113.945 a 11.338583,11.338583 0 0 0 13.135246,9.1974"
           style="fill:none;stroke:#000000"
           id="path1693" /><path
           style="fill:none;stroke:#000000"
           d="m 109.104,1123.14 55.832,-9.84"
           id="path1695" /><path
           d="m 169.10344,1136.9332 a 12.000007,12.000007 0 1 0 -4.16756,-23.6354"
           style="fill:none;stroke:#000000"
           id="path1697" /><path
           style="fill:none;stroke:#000000"
           d="m 169.103,1136.93 -86.7545,15.3"
           id="path1699" /><path
           d="m 40.718268,1129.1082 a 37.795276,37.795276 0 0 0 41.630247,23.1222"
           style="fill:none;stroke:#000000"
           id="path1701" /><path
           d="m 40.718268,1129.1082 a 7.559055,7.559055 0 0 0 -8.32605,-4.6245"
           style="fill:none;stroke:#000000"
           id="path1703" /><path
           style="fill:none;stroke:#000000"
           d="m 32.3922,1124.48 -23.63537,4.17"
           id="path1705" /><path
           d="m 0,1122.5197 a 7.559055,7.559055 0 0 0 8.756832,6.1316"
           style="fill:none;stroke:#000000"
           id="path1707" /><path
           d="m -11.532541,1022.5628 a 6,6 0 0 0 -4.866957,6.9507"
           style="fill:none;stroke:#000000"
           id="path1709" /><path
           d="m 78.142046,1012.8433 a 6,6 0 0 0 -6.950735,-4.867"
           style="fill:none;stroke:#000000"
           id="path1711" /></g></g><g
       id="g2002"><text
         xml:space="preserve"
         style="font-size:3.88056px;font-family:'OCR A Extended';-inkscape-font-specification:'OCR A Extended';text-align:center;text-anchor:middle;fill:#ff0000;stroke:none;stroke-width:0.352777;stroke-linecap:round;stroke-linejoin:round"
         x="48.306862"
         y="71.865776"
         id="text1771"><tspan
           sodipodi:role="line"
           id="tspan1769"
           style="fill:#ff0000;stroke:none;stroke-width:0.352778"
           x="48.306862"
           y="71.865776">Lathe tool rack</tspan><tspan
           sodipodi:role="line"
           style="fill:#ff0000;stroke:none;stroke-width:0.352778"
           x="48.306862"
           y="76.716476"
           id="tspan1878">CBC Girard 2023</tspan></text><path
         id="path6151"
         d="m 28.467982,76.85607 c -0.025,-0.02602 -0.06012,-0.07675 -0.07805,-0.112665 -0.01873,-0.03751 -0.05919,-0.08773 -0.09515,-0.118057 -0.07206,-0.06076 -0.07836,-0.072 -0.08845,-0.157627 l -0.0074,-0.06315 h -0.07365 c -0.06722,0 -0.07687,-0.0035 -0.110506,-0.04126 -0.04593,-0.0514 -0.04608,-0.07813 -9.62e-4,-0.173509 0.01973,-0.04172 0.04263,-0.09629 0.05088,-0.121297 0.0083,-0.02501 0.03385,-0.0676 0.05688,-0.09466 0.09085,-0.106741 0.08589,-0.144251 -0.02928,-0.22135 -0.07931,-0.05309 -0.09409,-0.08262 -0.08327,-0.16638 0.0058,-0.04491 8.1e-4,-0.08153 -0.01923,-0.140839 -0.02377,-0.07037 -0.02499,-0.08439 -0.01,-0.114979 0.02459,-0.05017 0.07418,-0.08225 0.138143,-0.08934 0.09318,-0.01033 0.107286,-0.01539 0.143649,-0.05171 0.08257,-0.08245 0.0686,-0.141958 -0.06753,-0.287616 -0.132013,-0.141254 -0.173968,-0.215524 -0.192653,-0.341053 -0.01529,-0.102757 -0.0367,-0.145345 -0.07279,-0.144849 -0.01108,1.42e-4 -0.04572,0.01215 -0.07697,0.02663 -0.03381,0.01569 -0.100314,0.03028 -0.164179,0.036 -0.05904,0.0053 -0.158497,0.02197 -0.221012,0.03701 -0.06251,0.01509 -0.148695,0.03569 -0.191511,0.04582 -0.09283,0.02197 -0.199565,0.02364 -0.276088,0.0046 -0.05023,-0.01266 -0.06719,-0.01008 -0.172605,0.02612 -0.08233,0.0283 -0.129039,0.03787 -0.157945,0.03245 -0.06119,-0.01149 -0.202124,-0.07946 -0.287964,-0.1389 -0.04168,-0.02886 -0.101404,-0.06719 -0.132728,-0.08517 -0.03132,-0.01797 -0.07572,-0.05883 -0.09866,-0.09078 -0.0417,-0.05806 -0.05759,-0.06666 -0.0878,-0.04749 -0.01968,0.0125 -0.04055,0.133194 -0.04075,0.235673 -2.29e-4,0.119758 -0.01711,0.160461 -0.09365,0.225856 -0.05645,0.04825 -0.07053,0.0688 -0.08318,0.12154 -0.01853,0.07722 -0.0012,0.112174 0.07476,0.150929 0.108455,0.05533 0.166043,0.171048 0.141644,0.284619 -0.02457,0.114361 -0.04316,0.280852 -0.03499,0.313395 0.0044,0.01757 0.04421,0.07139 0.08844,0.119586 0.120135,0.130911 0.127767,0.187911 0.06329,0.472723 -0.01453,0.06421 -0.03433,0.105258 -0.08172,0.169458 -0.06924,0.0938 -0.07092,0.0987 -0.07848,0.228474 -0.0068,0.116958 -0.02979,0.15511 -0.09342,0.15511 -0.04335,0 -0.0624,-0.0163 -0.307534,-0.262945 -0.143728,-0.144621 -0.276082,-0.286325 -0.294119,-0.314894 -0.04838,-0.07664 -0.07922,-0.100474 -0.16843,-0.130162 -0.07212,-0.024 -0.103052,-0.02633 -0.299995,-0.02248 -0.216542,0.0041 -0.220031,0.0041 -0.251625,-0.02572 -0.01762,-0.0165 -0.03581,-0.04774 -0.04042,-0.06946 -0.0171,-0.08052 -0.0839,-0.267517 -0.103187,-0.288886 -0.01323,-0.01468 -0.03861,-0.02212 -0.0754,-0.02212 -0.04271,0 -0.0629,-0.0074 -0.08792,-0.03245 -0.04101,-0.04101 -0.03542,-0.08837 0.02727,-0.230945 0.0242,-0.05505 0.05224,-0.139066 0.06231,-0.186706 0.02988,-0.141345 0.118848,-0.456675 0.165198,-0.585479 0.01125,-0.03124 0.03093,-0.127843 0.04375,-0.214633 0.0223,-0.151055 0.02715,-0.165428 0.11345,-0.336284 0.08287,-0.164061 0.09108,-0.18743 0.101582,-0.289241 0.0088,-0.08547 0.02144,-0.131235 0.0553,-0.200457 0.03089,-0.06317 0.0462,-0.114913 0.05174,-0.174936 0.0043,-0.04688 0.0161,-0.104949 0.02617,-0.129043 0.01007,-0.0241 0.01831,-0.07667 0.01831,-0.116836 0,-0.04015 0.0086,-0.112807 0.01915,-0.161429 0.02893,-0.133538 0.03631,-0.278832 0.01958,-0.385184 -0.01216,-0.07733 -0.01123,-0.130658 0.0051,-0.290477 0.02836,-0.277136 0.03906,-0.327075 0.09535,-0.444858 0.03478,-0.07279 0.05409,-0.134672 0.0636,-0.203879 0.0075,-0.05465 0.01906,-0.113582 0.02566,-0.130952 0.0066,-0.01736 0.01753,-0.07051 0.02428,-0.118092 0.0067,-0.04759 0.03155,-0.133574 0.05512,-0.191096 0.02357,-0.05752 0.05842,-0.158123 0.07745,-0.223558 0.01902,-0.06543 0.0557,-0.164891 0.08149,-0.221011 0.02579,-0.05612 0.05935,-0.139508 0.07458,-0.1853 0.0552,-0.166041 0.273394,-0.50403 0.43905,-0.680121 0.108731,-0.115581 0.25441,-0.229876 0.380211,-0.298303 0.04698,-0.02557 0.139086,-0.07832 0.204685,-0.117257 0.107714,-0.06394 0.127576,-0.07127 0.20501,-0.07565 0.05388,-0.003 0.118422,0.003 0.173703,0.01671 0.077,0.01888 0.102609,0.01964 0.205439,0.0061 0.06461,-0.0085 0.161568,-0.02567 0.215457,-0.03817 0.06262,-0.01453 0.110476,-0.01914 0.132607,-0.01281 0.108143,0.03109 0.343741,0.174389 0.615571,0.37439 0.214908,0.158118 0.493922,0.49866 0.537752,0.656337 0.01168,0.04202 0.03554,0.104615 0.05303,0.139133 0.01749,0.03453 0.03827,0.08677 0.04617,0.116122 0.03058,0.113582 0.128577,0.334679 0.202774,0.45751 0.0427,0.07068 0.09083,0.166421 0.106967,0.212744 0.01613,0.04632 0.05098,0.138222 0.07744,0.204209 0.0465,0.115976 0.0482,0.125666 0.05109,0.290471 0.0017,0.09377 0.01151,0.209514 0.02192,0.2572 0.0176,0.08063 0.01726,0.09205 -0.0048,0.162962 -0.01993,0.06403 -0.02256,0.100758 -0.0164,0.229026 0.004,0.08403 0.01454,0.166978 0.02336,0.184343 0.0088,0.01736 0.07694,0.09409 0.151395,0.170496 0.153375,0.157393 0.185888,0.214268 0.207991,0.363855 0.01613,0.109187 0.01092,0.157039 -0.03322,0.304561 -0.02273,0.07597 -0.02994,0.130161 -0.02994,0.224823 0,0.117844 0.0024,0.129423 0.0442,0.210132 0.03181,0.06148 0.0442,0.10177 0.0442,0.14376 0,0.09243 0.01478,0.115951 0.09272,0.147582 0.07515,0.03048 0.211715,0.158893 0.235471,0.221376 0.02037,0.05359 0.01492,0.170107 -0.01261,0.269447 -0.0141,0.05088 -0.0219,0.105658 -0.01752,0.123099 0.0044,0.01726 0.03301,0.05936 0.06371,0.09351 0.07097,0.07894 0.143396,0.19873 0.143396,0.237181 0,0.03625 -0.03803,0.112908 -0.08186,0.164998 -0.01918,0.02278 -0.05842,0.04729 -0.09556,0.05961 -0.03465,0.01149 -0.07156,0.03321 -0.08202,0.04825 -0.125437,0.180272 -0.132258,0.201707 -0.0952,0.299199 0.04702,0.123702 0.02792,0.207028 -0.08857,0.386409 -0.03654,0.05627 -0.05366,0.09927 -0.06284,0.157865 -0.0069,0.0443 -0.0187,0.09944 -0.02611,0.122547 -0.01423,0.0443 -0.0744,0.09045 -0.118044,0.09054 -0.01474,2.6e-5 -0.05937,0.03681 -0.108394,0.08937 -0.0789,0.08457 -0.0897,0.09151 -0.203069,0.130475 -0.06586,0.02263 -0.160572,0.06757 -0.21048,0.09986 -0.153211,0.09911 -0.180673,0.109744 -0.283455,0.109744 -0.09057,0 -0.09368,-0.001 -0.138118,-0.04734 z m -1.279276,-2.830765 c 0.0487,-0.0057 0.113068,-0.02288 0.143034,-0.03817 0.03457,-0.01762 0.08274,-0.02906 0.131809,-0.03119 0.07635,-0.0035 0.07814,-0.0041 0.141579,-0.0741 0.03534,-0.03888 0.07683,-0.09589 0.0922,-0.126668 0.02509,-0.05022 0.02714,-0.06813 0.02003,-0.174582 -0.0055,-0.08191 -0.01556,-0.132566 -0.03261,-0.163707 -0.03011,-0.05498 -0.13033,-0.122745 -0.217169,-0.146833 -0.03537,-0.0098 -0.118309,-0.03427 -0.184296,-0.05436 -0.149834,-0.04561 -0.383568,-0.07277 -0.444189,-0.05164 -0.07481,0.02607 -0.138458,0.08058 -0.199906,0.171199 -0.03313,0.04886 -0.07587,0.103046 -0.09498,0.120411 -0.140205,0.127443 -0.141482,0.217463 -0.0056,0.396641 0.06025,0.07946 0.08335,0.09391 0.195058,0.122062 0.04877,0.0123 0.114248,0.03443 0.145505,0.04916 0.05977,0.0282 0.08322,0.02835 0.309562,0.002 z m -0.99154,-0.26655 c 0.01389,-0.01387 0.02526,-0.02972 0.02526,-0.03519 0,-0.0674 0.04236,-0.318569 0.06073,-0.360098 0.02598,-0.05873 0.08488,-0.110908 0.187201,-0.165854 0.03565,-0.01914 0.07663,-0.05078 0.09107,-0.07031 0.04139,-0.05598 0.252554,-0.213165 0.305532,-0.227431 0.03824,-0.01028 0.06037,-0.0084 0.109017,0.0094 0.04618,0.01686 0.09946,0.02233 0.2189,0.02233 h 0.157865 l 0.227326,0.113662 c 0.225086,0.112544 0.227735,0.114351 0.268722,0.183128 0.05445,0.09137 0.06779,0.143628 0.07774,0.30452 0.0088,0.142236 0.02366,0.181918 0.08259,0.220531 0.06687,0.04379 0.157496,-0.0202 0.215079,-0.151916 0.07315,-0.167317 0.09367,-0.219528 0.10695,-0.272104 0.0079,-0.03124 0.02817,-0.09946 0.04505,-0.151552 0.01688,-0.05209 0.04196,-0.171443 0.05573,-0.265214 0.01377,-0.09377 0.03319,-0.198907 0.04316,-0.233637 0.0222,-0.07737 0.03672,-0.43571 0.01766,-0.43571 -0.0071,0 -0.03429,0.01929 -0.06038,0.04288 -0.03505,0.03164 -0.07009,0.04799 -0.134138,0.06249 -0.145526,0.03296 -0.363856,0.05002 -0.546282,0.04268 -0.235342,-0.0095 -0.267049,-0.02202 -0.384117,-0.152346 -0.121344,-0.135073 -0.13909,-0.162016 -0.189477,-0.287657 -0.07439,-0.185502 -0.134693,-0.182768 -0.214791,0.0097 -0.06013,0.14451 -0.231924,0.378279 -0.303822,0.413424 -0.120295,0.05881 -0.5268,0.04587 -0.791119,-0.02516 -0.12782,-0.03433 -0.180355,-0.03377 -0.194112,0.002 -0.0042,0.01099 0.0037,0.06323 0.01755,0.116148 0.01386,0.05292 0.0252,0.114665 0.0252,0.137214 0,0.02258 0.0081,0.09394 0.01792,0.158644 0.0099,0.06471 0.02411,0.173564 0.03168,0.241905 0.0285,0.257331 0.174368,0.608656 0.303656,0.731371 0.05609,0.05324 0.08965,0.0591 0.126649,0.02212 z m 0.221011,-1.514517 c 0.20426,-0.01159 0.273819,-0.03276 0.304917,-0.09291 0.02897,-0.05602 0.0498,-0.300835 0.03094,-0.363759 -0.01907,-0.06363 -0.052,-0.08428 -0.192686,-0.120821 -0.08813,-0.02288 -0.164538,-0.03164 -0.331454,-0.03792 -0.257277,-0.0097 -0.3116,0.002 -0.408293,0.08995 l -0.06015,0.05454 0.0017,0.118148 c 0.003,0.213817 0.07067,0.322589 0.219354,0.352591 0.06017,0.01215 0.223551,0.0122 0.435708,1.87e-4 z m 1.609546,-0.03868 c 0.123394,-0.01418 0.221289,-0.05621 0.263292,-0.113019 0.03392,-0.04587 0.06434,-0.155111 0.07426,-0.266682 0.0134,-0.150641 -0.03453,-0.194969 -0.225655,-0.208699 -0.165851,-0.0119 -0.506723,0.01296 -0.605733,0.0442 -0.101436,0.032 -0.162206,0.09094 -0.162206,0.157308 0,0.09024 0.08836,0.274007 0.16604,0.345315 0.0168,0.01544 0.05309,0.03331 0.08065,0.03979 0.0678,0.0159 0.278884,0.01681 0.409351,0.002 z m -0.672757,-0.705347 c 0.18857,-0.08656 0.42063,-0.122533 0.699587,-0.108438 0.1953,0.0099 0.226435,0.002 0.226435,-0.05743 0,-0.02015 -0.0058,-0.05179 -0.01281,-0.07033 -0.007,-0.01853 -0.02108,-0.08872 -0.03118,-0.155981 -0.02194,-0.146059 -0.03796,-0.194073 -0.113603,-0.340542 -0.08283,-0.16038 -0.251195,-0.401698 -0.312914,-0.448513 -0.11218,-0.08508 -0.392763,-0.199768 -0.591555,-0.241794 -0.04582,-0.0097 -0.112802,-0.02921 -0.148861,-0.04344 -0.08516,-0.03357 -0.120365,-0.0326 -0.184782,0.0052 -0.0291,0.01706 -0.0978,0.04298 -0.15266,0.05766 -0.115628,0.03088 -0.232653,0.06957 -0.383904,0.126851 -0.138885,0.05261 -0.199047,0.112478 -0.281067,0.279703 -0.03303,0.06735 -0.08702,0.158265 -0.119977,0.202042 -0.07345,0.09756 -0.162439,0.283151 -0.179709,0.374785 -0.0071,0.03741 -0.01282,0.129767 -0.01282,0.205226 0,0.122902 0.0028,0.139983 0.02674,0.16394 0.02417,0.0242 0.03541,0.02592 0.11682,0.01802 0.04954,-0.0051 0.118492,-0.01478 0.153223,-0.02217 0.148255,-0.03154 0.54914,0.01402 0.745689,0.08471 0.08147,0.02931 0.100817,0.03124 0.266874,0.02663 0.178024,-0.0051 0.179664,-0.0052 0.290473,-0.05609 z"
         style="fill:#ff0000;fill-opacity:1;stroke-width:0.0126292" /></g><path
       d="M 9.53406,165.23231 H 0 v 20.13331 l 8.06312,-1.42174 0.55133,3.12677 12.01465,-2.11849 -0.55133,-3.12677 12.99946,-2.29216 0.55134,3.12676 12.01466,-2.11852 -0.55134,-3.12676 12.99947,-2.29214 0.55133,3.12677 12.01465,-2.11852 -0.55133,-3.12677 8.06264,-1.42166 2.430362,13.78323 8.063113,-1.42174 0.55133,3.12677 12.014665,-2.11849 -0.55133,-3.12677 12.99946,-2.29216 0.55133,3.12676 12.01466,-2.11852 -0.55135,-3.12676 12.99947,-2.29214 0.55133,3.12677 12.01465,-2.11852 -0.55133,-3.12677 8.06311,-1.42174 v -6.35 h -9.53405 v 3.00001 h -12.7 v -3.00001 h -19.05 v 3.00001 h -12.7 v -3.00001 H 85.734075 v 3.00001 H 73.03407 v -3.00001 h -19.05 v 3.00001 h -12.7 v -3.00001 H 22.23406 v 3.00001 h -12.7 z"
       style="fill:none;stroke:#000000;stroke-width:0.264583"
       id="path2004" /><g
       id="g2062"
       transform="rotate(90,164.63841,331.52321)"><g
         inkscape:label="0"
         id="g2032"
         transform="matrix(0.26056371,0.04594441,-0.04594441,0.26056371,49.985867,31.087827)"><path
           style="fill:none;stroke:#000000"
           d="m 0,1122.52 -16.3995,-93.01"
           id="path2006" /><path
           style="fill:none;stroke:#000000"
           d="m -11.5325,1022.56 82.7238,-14.58"
           id="path2008" /><path
           style="fill:none;stroke:#000000"
           d="m 78.142,1012.84 17.827,101.11"
           id="path2010" /><path
           d="m 95.969014,1113.945 a 11.338583,11.338583 0 0 0 13.135246,9.1974"
           style="fill:none;stroke:#000000"
           id="path2012" /><path
           style="fill:none;stroke:#000000"
           d="m 109.104,1123.14 55.832,-9.84"
           id="path2014" /><path
           d="m 169.10344,1136.9332 a 12.000007,12.000007 0 1 0 -4.16756,-23.6354"
           style="fill:none;stroke:#000000"
           id="path2016" /><path
           style="fill:none;stroke:#000000"
           d="m 169.103,1136.93 -86.7545,15.3"
           id="path2018" /><path
           d="m 40.718268,1129.1082 a 37.795276,37.795276 0 0 0 41.630247,23.1222"
           style="fill:none;stroke:#000000"
           id="path2020" /><path
           d="m 40.718268,1129.1082 a 7.559055,7.559055 0 0 0 -8.32605,-4.6245"
           style="fill:none;stroke:#000000"
           id="path2022" /><path
           style="fill:none;stroke:#000000"
           d="m 32.3922,1124.48 -23.63537,4.17"
           id="path2024" /><path
           d="m 0,1122.5197 a 7.559055,7.559055 0 0 0 8.756832,6.1316"
           style="fill:none;stroke:#000000"
           id="path2026" /><path
           d="m -11.532541,1022.5628 a 6,6 0 0 0 -4.866957,6.9507"
           style="fill:none;stroke:#000000"
           id="path2028" /><path
           d="m 78.142046,1012.8433 a 6,6 0 0 0 -6.950735,-4.867"
           style="fill:none;stroke:#000000"
           id="path2030" /></g><g
         inkscape:label="0"
         id="g2060"
         transform="matrix(-0.26056371,-0.04594441,0.04594441,-0.26056371,20.533717,600.88012)"><path
           style="fill:none;stroke:#000000"
           d="m 0,1122.52 -16.3995,-93.01"
           id="path2034" /><path
           style="fill:none;stroke:#000000"
           d="m -11.5325,1022.56 82.7238,-14.58"
           id="path2036" /><path
           style="fill:none;stroke:#000000"
           d="m 78.142,1012.84 17.827,101.11"
           id="path2038" /><path
           d="m 95.969014,1113.945 a 11.338583,11.338583 0 0 0 13.135246,9.1974"
           style="fill:none;stroke:#000000"
           id="path2040" /><path
           style="fill:none;stroke:#000000"
           d="m 109.104,1123.14 55.832,-9.84"
           id="path2042" /><path
           d="m 169.10344,1136.9332 a 12.000007,12.000007 0 1 0 -4.16756,-23.6354"
           style="fill:none;stroke:#000000"
           id="path2044" /><path
           style="fill:none;stroke:#000000"
           d="m 169.103,1136.93 -86.7545,15.3"
           id="path2046" /><path
           d="m 40.718268,1129.1082 a 37.795276,37.795276 0 0 0 41.630247,23.1222"
           style="fill:none;stroke:#000000"
           id="path2048" /><path
           d="m 40.718268,1129.1082 a 7.559055,7.559055 0 0 0 -8.32605,-4.6245"
           style="fill:none;stroke:#000000"
           id="path2050" /><path
           style="fill:none;stroke:#000000"
           d="m 32.3922,1124.48 -23.63537,4.17"
           id="path2052" /><path
           d="m 0,1122.5197 a 7.559055,7.559055 0 0 0 8.756832,6.1316"
           style="fill:none;stroke:#000000"
           id="path2054" /><path
           d="m -11.532541,1022.5628 a 6,6 0 0 0 -4.866957,6.9507"
           style="fill:none;stroke:#000000"
           id="path2056" /><path
           d="m 78.142046,1012.8433 a 6,6 0 0 0 -6.950735,-4.867"
           style="fill:none;stroke:#000000"
           id="path2058" /></g></g><g
       id="g2120"
       transform="rotate(90,187.92145,354.80625)"><g
         inkscape:label="0"
         id="g2090"
         transform="matrix(0.26056371,0.04594441,-0.04594441,0.26056371,49.985867,31.087827)"><path
           style="fill:none;stroke:#000000"
           d="m 0,1122.52 -16.3995,-93.01"
           id="path2064" /><path
           style="fill:none;stroke:#000000"
           d="m -11.5325,1022.56 82.7238,-14.58"
           id="path2066" /><path
           style="fill:none;stroke:#000000"
           d="m 78.142,1012.84 17.827,101.11"
           id="path2068" /><path
           d="m 95.969014,1113.945 a 11.338583,11.338583 0 0 0 13.135246,9.1974"
           style="fill:none;stroke:#000000"
           id="path2070" /><path
           style="fill:none;stroke:#000000"
           d="m 109.104,1123.14 55.832,-9.84"
           id="path2072" /><path
           d="m 169.10344,1136.9332 a 12.000007,12.000007 0 1 0 -4.16756,-23.6354"
           style="fill:none;stroke:#000000"
           id="path2074" /><path
           style="fill:none;stroke:#000000"
           d="m 169.103,1136.93 -86.7545,15.3"
           id="path2076" /><path
           d="m 40.718268,1129.1082 a 37.795276,37.795276 0 0 0 41.630247,23.1222"
           style="fill:none;stroke:#000000"
           id="path2078" /><path
           d="m 40.718268,1129.1082 a 7.559055,7.559055 0 0 0 -8.32605,-4.6245"
           style="fill:none;stroke:#000000"
           id="path2080" /><path
           style="fill:none;stroke:#000000"
           d="m 32.3922,1124.48 -23.63537,4.17"
           id="path2082" /><path
           d="m 0,1122.5197 a 7.559055,7.559055 0 0 0 8.756832,6.1316"
           style="fill:none;stroke:#000000"
           id="path2084" /><path
           d="m -11.532541,1022.5628 a 6,6 0 0 0 -4.866957,6.9507"
           style="fill:none;stroke:#000000"
           id="path2086" /><path
           d="m 78.142046,1012.8433 a 6,6 0 0 0 -6.950735,-4.867"
           style="fill:none;stroke:#000000"
           id="path2088" /></g><g
         inkscape:label="0"
         id="g2118"
         transform="matrix(-0.26056371,-0.04594441,0.04594441,-0.26056371,20.533717,600.88012)"><path
           style="fill:none;stroke:#000000"
           d="m 0,1122.52 -16.3995,-93.01"
           id="path2092" /><path
           style="fill:none;stroke:#000000"
           d="m -11.5325,1022.56 82.7238,-14.58"
           id="path2094" /><path
           style="fill:none;stroke:#000000"
           d="m 78.142,1012.84 17.827,101.11"
           id="path2096" /><path
           d="m 95.969014,1113.945 a 11.338583,11.338583 0 0 0 13.135246,9.1974"
           style="fill:none;stroke:#000000"
           id="path2098" /><path
           style="fill:none;stroke:#000000"
           d="m 109.104,1123.14 55.832,-9.84"
           id="path2100" /><path
           d="m 169.10344,1136.9332 a 12.000007,12.000007 0 1 0 -4.16756,-23.6354"
           style="fill:none;stroke:#000000"
           id="path2102" /><path
           style="fill:none;stroke:#000000"
           d="m 169.103,1136.93 -86.7545,15.3"
           id="path2104" /><path
           d="m 40.718268,1129.1082 a 37.795276,37.795276 0 0 0 41.630247,23.1222"
           style="fill:none;stroke:#000000"
           id="path2106" /><path
           d="m 40.718268,1129.1082 a 7.559055,7.559055 0 0 0 -8.32605,-4.6245"
           style="fill:none;stroke:#000000"
           id="path2108" /><path
           style="fill:none;stroke:#000000"
           d="m 32.3922,1124.48 -23.63537,4.17"
           id="path2110" /><path
           d="m 0,1122.5197 a 7.559055,7.559055 0 0 0 8.756832,6.1316"
           style="fill:none;stroke:#000000"
           id="path2112" /><path
           d="m -11.532541,1022.5628 a 6,6 0 0 0 -4.866957,6.9507"
           style="fill:none;stroke:#000000"
           id="path2114" /><path
           d="m 78.142046,1012.8433 a 6,6 0 0 0 -6.950735,-4.867"
           style="fill:none;stroke:#000000"
           id="path2116" /></g></g></g></svg>
