0
SECTION
2
HEADER
9
$INSUNITS
70
1
9
$ACADVER
1
AC1014
9
$HANDSEED
5
FFFF
0
ENDSEC
0
SECTION
2
TABLES
0
TABLE
2
VPORT
5
8
100
AcDbSymbolTable
0
ENDTAB
0
TABLE
2
LTYPE
5
5
100
AcDbSymbolTable
0
LTYPE
5
14
100
AcDbSymbolTableRecord
100
AcDbLinetypeTableRecord
2
BYBLOCK
70
0
0
LTYPE
5
15
100
AcDbSymbolTableRecord
100
AcDbLinetypeTableRecord
2
BYLAYER
70
0
0
ENDTAB
0
TABLE
2
LAYER
5
2
100
AcDbSymbolTable
70
2
0
LAYER
5
50
100
AcDbSymbolTableRecord
100
AcDbLayerTableRecord
2
0
70
0
6
CONTINUOUS
0
ENDTAB
0
TABLE
2
STYLE
5
3
100
AcDbSymbolTable
70
1
0
STYLE
5
11
100
AcDbSymbolTableRecord
100
AcDbTextStyleTableRecord
2
STANDARD
70
0
0
ENDTAB
0
TABLE
2
VIEW
5
6
100
AcDbSymbolTable
70
0
0
ENDTAB
0
TABLE
2
UCS
5
7
100
AcDbSymbolTable
70
0
0
ENDTAB
0
TABLE
2
APPID
5
9
100
AcDbSymbolTable
70
2
0
APPID
5
12
100
AcDbSymbolTableRecord
100
AcDbRegAppTableRecord
2
ACAD
70
0
0
ENDTAB
0
TABLE
2
DIMSTYLE
5
A
100
AcDbSymbolTable
70
1
0
ENDTAB
0
TABLE
2
BLOCK_RECORD
5
1
100
AcDbSymbolTable
70
1
0
BLOCK_RECORD
5
1F
100
AcDbSymbolTableRecord
100
AcDbBlockTableRecord
2
*MODEL_SPACE
0
BLOCK_RECORD
5
1B
100
AcDbSymbolTableRecord
100
AcDbBlockTableRecord
2
*PAPER_SPACE
0
ENDTAB
0
ENDSEC
0
SECTION
2
BLOCKS
0
BLOCK
5
20
100
AcDbEntity
100
AcDbBlockBegin
2
*MODEL_SPACE
0
ENDBLK
5
21
100
AcDbEntity
100
AcDbBlockEnd
0
BLOCK
5
1C
100
AcDbEntity
100
AcDbBlockBegin
2
*PAPER_SPACE
0
ENDBLK
5
1D
100
AcDbEntity
100
AcDbBlockEnd
0
ENDSEC
0
SECTION
2
ENTITIES
0
LWPOLYLINE
5
100
100
AcDbEntity
8
0
100
AcDbPolyline
90
50
70
1
43
0.0
10
4.8643774718899744
20
-0.63514607619985131
10
5.2397340741605261
20
-0.63514607619985264
10
5.2397340741605261
20
0.15750447900930675
10
4.9222886616492092
20
0.10153028788143319
10
4.9005826394408434
20
0.22463125700795916
10
4.4275647423247442
20
0.14122543938841009
10
4.44927076453311
20
0.018124470261884226
10
3.9374809086370015
20
-0.072117889785496866
10
3.9157748864286352
20
0.050983079341029088
10
3.4427569893125352
20
-0.032422738278520137
10
3.4644630115209014
20
-0.15552370740504609
10
2.9526731556247934
20
-0.2457660674524271
10
2.9309671334164271
20
-0.12266509832590106
10
2.457949236300327
20
-0.20607091594545029
10
2.4796552585086933
20
-0.32917188507197631
10
2.1622284532407741
20
-0.3851427952408023
10
2.0665450977825737
20
0.15750447900930684
10
1.7490996852712566
20
0.10153028788143319
10
1.7273936630628905
20
0.22463125700795916
10
1.2543757659467909
20
0.14122543938841009
10
1.2760817881551572
20
0.018124470261884226
10
0.7642919322590489
20
-0.072117889785496866
10
0.74258591005068253
20
0.050983079341029004
10
0.26956801293458243
20
-0.032422738278520137
10
0.29127403514294881
20
-0.15552370740504609
10
-0.22051582075315951
20
-0.2457660674524271
10
-0.24222184296152588
20
-0.12266509832590106
10
-0.71523974007762592
20
-0.20607091594545029
10
-0.69353371786925955
20
-0.32917188507197631
10
-1.0109791303805766
20
-0.38514607619984997
10
-1.0109791303805766
20
-0.63514607619984997
10
-0.63562252811002429
20
-0.63514607619985108
10
-0.63562252811002429
20
-0.51703583997937863
10
-0.13562252811002454
20
-0.51703583997937863
10
-0.13562252811002454
20
-0.63514607619985131
10
0.61437747188997516
20
-0.63514607619985108
10
0.61437747188997516
20
-0.51703583997937863
10
1.114377471889975
20
-0.51703583997937863
10
1.114377471889975
20
-0.63514607619985131
10
1.864377471889975
20
-0.63514607619985108
10
1.864377471889975
20
-0.51703583997937863
10
2.3643774718899748
20
-0.51703583997937863
10
2.3643774718899748
20
-0.63514607619985131
10
3.1143774718899748
20
-0.63514607619985108
10
3.1143774718899748
20
-0.51703583997937863
10
3.6143774718899744
20
-0.51703583997937863
10
3.6143774718899744
20
-0.63514607619985131
10
4.3643774718899753
20
-0.63514607619985108
10
4.3643774718899753
20
-0.51703583997937863
10
4.8643774718899744
20
-0.51703583997937863
0
ENDSEC
0
SECTION
2
OBJECTS
0
DICTIONARY
5
C
100
AcDbDictionary
3
ACAD_GROUP
350
D
3
ACAD_MLINESTYLE
350
17
0
DICTIONARY
5
D
100
AcDbDictionary
0
DICTIONARY
5
1A
330
C
100
AcDbDictionary
0
DICTIONARY
5
17
100
AcDbDictionary
0
ENDSEC
0
EOF
