0
SECTION
2
HEADER
9
$INSUNITS
70
1
9
$ACADVER
1
AC1014
9
$HANDSEED
5
FFFF
0
ENDSEC
0
SECTION
2
TABLES
0
TABLE
2
VPORT
5
8
100
AcDbSymbolTable
0
ENDTAB
0
TABLE
2
LTYPE
5
5
100
AcDbSymbolTable
0
LTYPE
5
14
100
AcDbSymbolTableRecord
100
AcDbLinetypeTableRecord
2
BYBLOCK
70
0
0
LTYPE
5
15
100
AcDbSymbolTableRecord
100
AcDbLinetypeTableRecord
2
BYLAYER
70
0
0
ENDTAB
0
TABLE
2
LAYER
5
2
100
AcDbSymbolTable
70
2
0
LAYER
5
50
100
AcDbSymbolTableRecord
100
AcDbLayerTableRecord
2
0
70
0
6
CONTINUOUS
0
ENDTAB
0
TABLE
2
STYLE
5
3
100
AcDbSymbolTable
70
1
0
STYLE
5
11
100
AcDbSymbolTableRecord
100
AcDbTextStyleTableRecord
2
STANDARD
70
0
0
ENDTAB
0
TABLE
2
VIEW
5
6
100
AcDbSymbolTable
70
0
0
ENDTAB
0
TABLE
2
UCS
5
7
100
AcDbSymbolTable
70
0
0
ENDTAB
0
TABLE
2
APPID
5
9
100
AcDbSymbolTable
70
2
0
APPID
5
12
100
AcDbSymbolTableRecord
100
AcDbRegAppTableRecord
2
ACAD
70
0
0
ENDTAB
0
TABLE
2
DIMSTYLE
5
A
100
AcDbSymbolTable
70
1
0
ENDTAB
0
TABLE
2
BLOCK_RECORD
5
1
100
AcDbSymbolTable
70
1
0
BLOCK_RECORD
5
1F
100
AcDbSymbolTableRecord
100
AcDbBlockTableRecord
2
*MODEL_SPACE
0
BLOCK_RECORD
5
1B
100
AcDbSymbolTableRecord
100
AcDbBlockTableRecord
2
*PAPER_SPACE
0
ENDTAB
0
ENDSEC
0
SECTION
2
BLOCKS
0
BLOCK
5
20
100
AcDbEntity
100
AcDbBlockBegin
2
*MODEL_SPACE
0
ENDBLK
5
21
100
AcDbEntity
100
AcDbBlockEnd
0
BLOCK
5
1C
100
AcDbEntity
100
AcDbBlockBegin
2
*PAPER_SPACE
0
ENDBLK
5
1D
100
AcDbEntity
100
AcDbBlockEnd
0
ENDSEC
0
SECTION
2
ENTITIES
0
LWPOLYLINE
5
100
100
AcDbEntity
8
0
100
AcDbPolyline
90
4
70
1
43
0.0
10
3.4276574803149606
20
0.31889763779527552
10
3.4276574803149606
20
1.1279527559054872
10
3.5723425196850394
20
1.1279527559054874
10
3.5723425196850394
20
0.31889763779527558
0
LWPOLYLINE
5
101
100
AcDbEntity
8
0
100
AcDbPolyline
90
4
70
1
43
0.0
10
1.6776574803149606
20
0.31889763779527552
10
1.6776574803149606
20
1.1279527559054872
10
1.8223425196850394
20
1.1279527559054874
10
1.8223425196850394
20
0.31889763779527558
0
LWPOLYLINE
5
102
100
AcDbEntity
8
0
100
AcDbPolyline
90
4
70
1
43
0.0
10
0.072342519685039366
20
1.1279527559054874
10
0.072342519685039366
20
0.31889763779527558
10
-0.072342519685039366
20
0.31889763779527552
10
-0.072342519685039366
20
1.1279527559054872
0
LWPOLYLINE
5
103
100
AcDbEntity
8
0
100
AcDbPolyline
90
4
70
1
43
0.0
10
4.9901574803149602
20
-0.25000000000000411
10
5.1249999999999991
20
-0.25000000000000411
10
5.1249999999999991
20
-0.75000000000000422
10
4.9901574803149602
20
-0.75000000000000422
0
LWPOLYLINE
5
104
100
AcDbEntity
8
0
100
AcDbPolyline
90
4
70
1
43
0.0
10
4.9901574803149602
20
0.74999999999999567
10
5.1249999999999991
20
0.74999999999999567
10
5.1249999999999991
20
0.24999999999999561
10
4.9901574803149602
20
0.24999999999999564
0
LWPOLYLINE
5
105
100
AcDbEntity
8
0
100
AcDbPolyline
90
4
70
1
43
0.0
10
4.9901574803149602
20
1.2499999999999956
10
4.9901574803149602
20
1.7499999999999953
10
5.1249999999999991
20
1.7499999999999951
10
5.1249999999999991
20
1.2499999999999953
0
LWPOLYLINE
5
106
100
AcDbEntity
8
0
100
AcDbPolyline
90
4
70
1
43
0.0
10
-4.9901574803149602
20
1.2499999999999956
10
-5.1249999999999991
20
1.2499999999999956
10
-5.1249999999999991
20
1.7499999999999953
10
-4.9901574803149602
20
1.7499999999999951
0
LWPOLYLINE
5
107
100
AcDbEntity
8
0
100
AcDbPolyline
90
4
70
1
43
0.0
10
-4.9901574803149602
20
-0.75000000000000422
10
-5.1249999999999991
20
-0.75000000000000422
10
-5.1249999999999991
20
-0.25000000000000411
10
-4.9901574803149602
20
-0.25000000000000411
0
LWPOLYLINE
5
108
100
AcDbEntity
8
0
100
AcDbPolyline
90
4
70
1
43
0.0
10
-5.1249999999999991
20
0.2499999999999957
10
-5.1249999999999991
20
0.74999999999999567
10
-4.9901574803149602
20
0.74999999999999567
10
-4.9901574803149602
20
0.24999999999999561
0
LWPOLYLINE
5
109
100
AcDbEntity
8
0
100
AcDbPolyline
90
4
70
1
43
0.0
10
-3.5723425196850394
20
0.31889763779527552
10
-3.5723425196850394
20
1.1279527559054872
10
-3.4276574803149606
20
1.1279527559054874
10
-3.4276574803149606
20
0.31889763779527558
0
LWPOLYLINE
5
110
100
AcDbEntity
8
0
100
AcDbPolyline
90
4
70
1
43
0.0
10
-1.8223425196850394
20
0.31889763779527552
10
-1.8223425196850394
20
1.1279527559054872
10
-1.6776574803149606
20
1.1279527559054874
10
-1.6776574803149606
20
0.31889763779527558
0
LWPOLYLINE
5
111
100
AcDbEntity
8
0
100
AcDbPolyline
90
4
70
1
43
0.0
10
-5.2499999999999991
20
2.0624999999999951
10
-5.2499999999999991
20
-1.062500000000004
10
5.2499999999999991
20
-1.062500000000004
10
5.2499999999999991
20
2.0624999999999951
0
ENDSEC
0
SECTION
2
OBJECTS
0
DICTIONARY
5
C
100
AcDbDictionary
3
ACAD_GROUP
350
D
3
ACAD_MLINESTYLE
350
17
0
DICTIONARY
5
D
100
AcDbDictionary
0
DICTIONARY
5
1A
330
C
100
AcDbDictionary
0
DICTIONARY
5
17
100
AcDbDictionary
0
ENDSEC
0
EOF
